<mxfile host="65bd71144e">
    <diagram name="Page-1" id="52a04d89-c75d-2922-d76d-85b35f80e030">
        <mxGraphModel dx="800" dy="594" grid="1" gridSize="10" guides="1" tooltips="1" connect="1" arrows="1" fold="1" page="1" pageScale="1" pageWidth="1169" pageHeight="827" background="none" math="0" shadow="0">
            <root>
                <mxCell id="0"/>
                <mxCell id="1" parent="0"/>
                <mxCell id="OLRJJfBK9Faeayl9oiCY-3" value="" style="edgeStyle=orthogonalEdgeStyle;rounded=0;orthogonalLoop=1;jettySize=auto;html=1;" parent="1" source="OLRJJfBK9Faeayl9oiCY-1" target="OLRJJfBK9Faeayl9oiCY-2" edge="1">
                    <mxGeometry relative="1" as="geometry"/>
                </mxCell>
                <mxCell id="OLRJJfBK9Faeayl9oiCY-5" value="" style="edgeStyle=orthogonalEdgeStyle;rounded=0;orthogonalLoop=1;jettySize=auto;html=1;" parent="1" source="OLRJJfBK9Faeayl9oiCY-1" target="OLRJJfBK9Faeayl9oiCY-4" edge="1">
                    <mxGeometry relative="1" as="geometry"/>
                </mxCell>
                <mxCell id="OLRJJfBK9Faeayl9oiCY-7" value="" style="edgeStyle=orthogonalEdgeStyle;rounded=0;orthogonalLoop=1;jettySize=auto;html=1;" parent="1" source="OLRJJfBK9Faeayl9oiCY-1" target="OLRJJfBK9Faeayl9oiCY-6" edge="1">
                    <mxGeometry relative="1" as="geometry"/>
                </mxCell>
                <mxCell id="OLRJJfBK9Faeayl9oiCY-11" value="" style="edgeStyle=orthogonalEdgeStyle;rounded=0;orthogonalLoop=1;jettySize=auto;html=1;" parent="1" source="OLRJJfBK9Faeayl9oiCY-1" target="OLRJJfBK9Faeayl9oiCY-10" edge="1">
                    <mxGeometry relative="1" as="geometry"/>
                </mxCell>
                <mxCell id="OLRJJfBK9Faeayl9oiCY-1" value="normal user" style="rounded=1;whiteSpace=wrap;html=1;" parent="1" vertex="1">
                    <mxGeometry x="450" y="250" width="120" height="60" as="geometry"/>
                </mxCell>
                <mxCell id="OLRJJfBK9Faeayl9oiCY-15" value="" style="edgeStyle=orthogonalEdgeStyle;rounded=0;orthogonalLoop=1;jettySize=auto;html=1;" parent="1" source="OLRJJfBK9Faeayl9oiCY-2" target="OLRJJfBK9Faeayl9oiCY-14" edge="1">
                    <mxGeometry relative="1" as="geometry"/>
                </mxCell>
                <mxCell id="OLRJJfBK9Faeayl9oiCY-2" value="로그인" style="whiteSpace=wrap;html=1;rounded=1;" parent="1" vertex="1">
                    <mxGeometry x="550" y="610" width="120" height="60" as="geometry"/>
                </mxCell>
                <mxCell id="OLRJJfBK9Faeayl9oiCY-4" value="팀 소개&amp;nbsp;" style="whiteSpace=wrap;html=1;rounded=1;" parent="1" vertex="1">
                    <mxGeometry x="250" y="460" width="120" height="60" as="geometry"/>
                </mxCell>
                <mxCell id="OLRJJfBK9Faeayl9oiCY-13" value="" style="edgeStyle=orthogonalEdgeStyle;rounded=0;orthogonalLoop=1;jettySize=auto;html=1;" parent="1" source="OLRJJfBK9Faeayl9oiCY-6" target="OLRJJfBK9Faeayl9oiCY-12" edge="1">
                    <mxGeometry relative="1" as="geometry"/>
                </mxCell>
                <mxCell id="OLRJJfBK9Faeayl9oiCY-6" value="게시판" style="whiteSpace=wrap;html=1;rounded=1;" parent="1" vertex="1">
                    <mxGeometry x="90" y="460" width="120" height="60" as="geometry"/>
                </mxCell>
                <mxCell id="OLRJJfBK9Faeayl9oiCY-10" value="문의사항" style="whiteSpace=wrap;html=1;rounded=1;" parent="1" vertex="1">
                    <mxGeometry x="360" y="610" width="120" height="60" as="geometry"/>
                </mxCell>
                <mxCell id="OLRJJfBK9Faeayl9oiCY-12" value="글 상세 페이지" style="whiteSpace=wrap;html=1;rounded=1;" parent="1" vertex="1">
                    <mxGeometry x="90" y="610" width="120" height="60" as="geometry"/>
                </mxCell>
                <mxCell id="OLRJJfBK9Faeayl9oiCY-14" value="회원가입" style="whiteSpace=wrap;html=1;rounded=1;" parent="1" vertex="1">
                    <mxGeometry x="750" y="610" width="120" height="60" as="geometry"/>
                </mxCell>
                <mxCell id="OLRJJfBK9Faeayl9oiCY-24" value="" style="edgeStyle=orthogonalEdgeStyle;rounded=0;orthogonalLoop=1;jettySize=auto;html=1;" parent="1" source="OLRJJfBK9Faeayl9oiCY-18" target="OLRJJfBK9Faeayl9oiCY-23" edge="1">
                    <mxGeometry relative="1" as="geometry"/>
                </mxCell>
                <mxCell id="OLRJJfBK9Faeayl9oiCY-26" value="" style="edgeStyle=orthogonalEdgeStyle;rounded=0;orthogonalLoop=1;jettySize=auto;html=1;" parent="1" source="OLRJJfBK9Faeayl9oiCY-18" target="OLRJJfBK9Faeayl9oiCY-25" edge="1">
                    <mxGeometry relative="1" as="geometry"/>
                </mxCell>
                <mxCell id="OLRJJfBK9Faeayl9oiCY-18" value="root user" style="rounded=1;whiteSpace=wrap;html=1;" parent="1" vertex="1">
                    <mxGeometry x="450" y="140" width="120" height="60" as="geometry"/>
                </mxCell>
                <mxCell id="OLRJJfBK9Faeayl9oiCY-22" value="" style="endArrow=none;html=1;rounded=0;exitX=0.5;exitY=0;exitDx=0;exitDy=0;entryX=0.5;entryY=1;entryDx=0;entryDy=0;" parent="1" source="OLRJJfBK9Faeayl9oiCY-1" target="OLRJJfBK9Faeayl9oiCY-18" edge="1">
                    <mxGeometry width="50" height="50" relative="1" as="geometry">
                        <mxPoint x="630" y="440" as="sourcePoint"/>
                        <mxPoint x="680" y="390" as="targetPoint"/>
                        <Array as="points"/>
                    </mxGeometry>
                </mxCell>
                <mxCell id="OLRJJfBK9Faeayl9oiCY-23" value="글쓰기" style="whiteSpace=wrap;html=1;rounded=1;" parent="1" vertex="1">
                    <mxGeometry x="670" y="250" width="120" height="60" as="geometry"/>
                </mxCell>
                <mxCell id="OLRJJfBK9Faeayl9oiCY-25" value="문의사항 보기" style="whiteSpace=wrap;html=1;rounded=1;" parent="1" vertex="1">
                    <mxGeometry x="870" y="250" width="120" height="60" as="geometry"/>
                </mxCell>
                <mxCell id="OLRJJfBK9Faeayl9oiCY-28" value="" style="edgeStyle=orthogonalEdgeStyle;rounded=0;orthogonalLoop=1;jettySize=auto;html=1;" parent="1" source="OLRJJfBK9Faeayl9oiCY-27" target="OLRJJfBK9Faeayl9oiCY-18" edge="1">
                    <mxGeometry relative="1" as="geometry"/>
                </mxCell>
                <mxCell id="OLRJJfBK9Faeayl9oiCY-27" value="메인페이지" style="rounded=1;whiteSpace=wrap;html=1;" parent="1" vertex="1">
                    <mxGeometry x="450" y="20" width="120" height="60" as="geometry"/>
                </mxCell>
            </root>
        </mxGraphModel>
    </diagram>
</mxfile>